<?xml version="1.0" encoding="utf-8"?>
<?xml-stylesheet type="text/xsl" href="rss1.xsl"?>
<rss version="2.0" xmlns:atom="http://www.w3.org/2005/Atom" xmlns:content="http://purl.org/rss/1.0/modules/content/" xmlns:dc="http://purl.org/dc/elements/1.1/" xmlns:media="http://search.yahoo.com/mrss/">
<channel>
 <title>Getty</title>
 <link>http://www.gettyimg.com/</link>
 <atom:link href="http://www.gettyimg.com/" rel="self" type="application/rss+xml" />

 
                <item>
                <title><![CDATA[【Cinema Center】SERIES - Tuca, O Mestre Cuca 1080p GLBO (GLOBOPLAY) WEB-DL AAC2.0 (Português Brasileiro) x264-DASH]]></title>
                <link><![CDATA[https://sharemania.us/threads/tuca-o-mestre-cuca-1080p-glbo-globoplay-web-dl-aac2-0-portugu%C3%AAs-brasileiro-x264-dash.241820/]]></link>
                <description><![CDATA[<article>
<blockquote class="messageText SelectQuoteContainer ugc baseHtml">
<span style="font-size: 22px"><b>Tuca.O.Mestre.Cuca.S01.1080p.GLBO.WEB-DL.AAC2.0.x264-DASH.mkv (Português Brasileiro | Brazilian Portuguese) | MEGA (9.74 GB) | 1 Temporada | 26 Episódios | DASH</b></span><br>
<br>
<span style="font-size: 18px">Título Português: <b>Tuca, O Mestre Cuca</b><br>
<br>
<span style="font-size: 18px">Título Espanhol: </span><b><span style="font-size: 18px"><b>Tito, el cocinerito</b></span></b><br>
<br>
Ano de lançamento:<b> 2022</b><br>
<br>
Idioma: <b><b>Português (Brasil)</b></b><br>
<br>
Serviço:</span><b><b> <span style="font-size: 18px">GLOBOPLAY (Brasil)</span></b></b><br>
<br>
<div class="ToggleTriggerAnchor bbCodeSpoilerContainer">
<button type="button" class="button bbCodeSpoilerButton ToggleTrigger Tooltip JsOnly" data-target="> .SpoilerTarget"><span>Spoiler: <span class="SpoilerTitle">MediaInfo</span></span></button>
<div class="SpoilerTarget bbCodeSpoilerText">General<br>
Unique ID : 288036128539596553603071236313621991381 (0xD8B1BD9189A2180906219CA53CB80FD5)<br>
Complete name : Tuca.O.Mestre.Cuca.S01.1080p.GLBO.WEB-DL.AAC2.0.x264-DASH\Tuca.O.Mestre.Cuca.S01E01.O.Mistério.da.geladeira.1080p.GLBO.WEB-DL.AAC2.0.x264-DASH.mkv<br>
Format : Matroska<br>
Format version : Version 4<br>
File size : 384 MiB<br>
Duration : 11 min 12 s<br>
Overall bit rate : 4 793 kb/s<br>
Frame rate : 29.970 FPS<br>
Encoded date : 2024-03-26 20:20:59 UTC<br>
Writing application : mkvmerge v82.0 ('I'm The President') 64-bit<br>
Writing library : libebml v1.4.5 + libmatroska v1.7.1<br>
<br>
Video<br>
ID : 1<br>
Format : AVC<br>
Format/Info : Advanced Video Codec<br>
Format profile : High@L4<br>
Format settings : CABAC / 2 Ref Frames<br>
Format settings, CABAC : Yes<br>
Format settings, Reference frames : 2 frames<br>
Format settings, GOP : M=2, N=30<br>
Codec ID : V_MPEG4/ISO/AVC<br>
Duration : 11 min 11 s<br>
Bit rate : 4 660 kb/s<br>
Width : 1 920 pixels<br>
Height : 1 080 pixels<br>
Display aspect ratio : 16:9<br>
Frame rate mode : Constant<br>
Frame rate : 29.970 (30000/1001) FPS<br>
Color space : YUV<br>
Chroma subsampling : 4:2:0<br>
Bit depth : 8 bits<br>
Scan type : Progressive<br>
Bits/(Pixel*Frame) : 0.075<br>
Stream size : 373 MiB (97%)<br>
Title : Portuguese<br>
Writing library : x264 core 148<br>
Encoding settings : cabac=1 / ref=2 / deblock=1:0:0 / analyse=0x3:0x113 / me=hex / subme=4 / psy=1 / psy_rd=1.00:0.00 / mixed_ref=0 / me_range=16 / chroma_me=1 / trellis=1 / 8x8dct=1 / cqm=0 / deadzone=21,11 / fast_pskip=1 / chroma_qp_offset=0 / threads=24 / lookahead_threads=6 / sliced_threads=0 / nr=0 / decimate=1 / interlaced=0 / bluray_compat=0 / constrained_intra=0 / bframes=1 / b_pyramid=0 / b_adapt=1 / b_bias=0 / direct=1 / weightb=1 / open_gop=0 / weightp=1 / keyint=30 / keyint_min=16 / scenecut=0 / intra_refresh=0 / rc=2pass / mbtree=0 / bitrate=4660 / ratetol=1.0 / qcomp=0.60 / qpmin=0 / qpmax=69 / qpstep=4 / cplxblur=20.0 / qblur=0.5 / ip_ratio=1.40 / pb_ratio=1.30 / aq=1:1.00<br>
Language : Portuguese<br>
Default : Yes<br>
Forced : No<br>
<br>
Audio<br>
ID : 2<br>
Format : AAC LC<br>
Format/Info : Advanced Audio Codec Low Complexity<br>
Codec ID : A_AAC-2<br>
Duration : 11 min 12 s<br>
Bit rate : 128 kb/s<br>
Channel(s) : 2 channels<br>
Channel layout : L R<br>
Sampling rate : 44.1 kHz<br>
Frame rate : 43.066 FPS (1024 SPF)<br>
Compression mode : Lossy<br>
Stream size : 10.3 MiB (3%)<br>
Title : Portuguese<br>
Language : Portuguese<br>
Default : Yes<br>
Forced : No</div>
</div><br>
<img src="https://i.imgur.com/ByCYZWA.jpeg" class="bbCodeImage LbImage" alt="[​IMG]" data-url="https://i.imgur.com/ByCYZWA.jpeg" style=""> <br>
<br>
<b><span style="font-size: 22px"><br>
O amor de Tuca pela culinária, as inúmeras traquinagens de Pri e as relações entre os irmãos, pais e amigos, alimentam histórias repletas de aprendizado emocional e cultural.<br>
<br>
Imagens:</span></b><br>
<img src="https://i.imgur.com/igtZNWo.png" class="bbCodeImage LbImage" alt="[​IMG]" data-url="https://i.imgur.com/igtZNWo.png" style=""> <br>
<b><span style="font-size: 22px"><br>
<b><span style="font-size: 26px">Download no Mega:</span></b></span><br>
<span style="font-size: 18px">
<div class="bbCodeBlock bbCodeVfcHH HiddenContent">
<div class="attribution type">Hidden Content:</div>
<blockquote>You must reply before you can see the hidden data contained here.</blockquote>
</div></span></b>
<div class="messageTextEndMarker">&nbsp;</div>
</blockquote>
</article>]]></description>
                <author><![CDATA[dash]]></author>
                </item>

                </channel></rss>